<svg width="32" height="32" viewBox="0 0 32 32" fill="none" xmlns="http://www.w3.org/2000/svg">
<g clip-path="url(#clip0_883_1452)">
<path d="M13.5111 25.4667L26.0444 12.9333L23.5556 10.4444L13.5111 20.4889L8.44444 15.4222L5.95556 17.9111L13.5111 25.4667ZM3.55556 34C2.57778 34 1.74074 33.6519 1.04444 32.9556C0.348148 32.2593 0 31.4222 0 30.4444V5.55556C0 4.57778 0.348148 3.74074 1.04444 3.04444C1.74074 2.34815 2.57778 2 3.55556 2H28.4444C29.4222 2 30.2593 2.34815 30.9556 3.04444C31.6519 3.74074 32 4.57778 32 5.55556V30.4444C32 31.4222 31.6519 32.2593 30.9556 32.9556C30.2593 33.6519 29.4222 34 28.4444 34H3.55556ZM3.55556 30.4444H28.4444V5.55556H3.55556V30.4444Z" fill="black"/>
</g>
<defs>
<clipPath id="clip0_883_1452">
<rect width="32" height="32" fill="white"/>
</clipPath>
</defs>
</svg>
