<svg width="100" height="40" viewBox="0 0 100 40" fill="none" xmlns="http://www.w3.org/2000/svg">
<rect width="100" height="40" rx="8" fill="black"/>
<path d="M20.0774 26.192C18.4881 26.192 17.2454 25.7493 16.3494 24.864C15.4534 23.9787 15.0054 22.7147 15.0054 21.072V14.8H17.5974V20.976C17.5974 22.0427 17.8161 22.8107 18.2534 23.28C18.6908 23.7493 19.3041 23.984 20.0934 23.984C20.8828 23.984 21.4961 23.7493 21.9334 23.28C22.3708 22.8107 22.5894 22.0427 22.5894 20.976V14.8H25.1494V21.072C25.1494 22.7147 24.7014 23.9787 23.8054 24.864C22.9094 25.7493 21.6668 26.192 20.0774 26.192ZM27.7108 26V14.8H32.5588C33.5615 14.8 34.4255 14.9653 35.1508 15.296C35.8761 15.616 36.4361 16.08 36.8308 16.688C37.2255 17.296 37.4228 18.0213 37.4228 18.864C37.4228 19.696 37.2255 20.416 36.8308 21.024C36.4361 21.632 35.8761 22.1013 35.1508 22.432C34.4255 22.752 33.5615 22.912 32.5588 22.912H29.1508L30.3028 21.744V26H27.7108ZM30.3028 22.032L29.1508 20.8H32.4148C33.2148 20.8 33.8121 20.6293 34.2068 20.288C34.6015 19.9467 34.7988 19.472 34.7988 18.864C34.7988 18.2453 34.6015 17.7653 34.2068 17.424C33.8121 17.0827 33.2148 16.912 32.4148 16.912H29.1508L30.3028 15.68V22.032ZM39.2733 26V14.8H41.8653V23.888H47.4813V26H39.2733ZM54.1821 26.192C53.2967 26.192 52.4754 26.048 51.7181 25.76C50.9714 25.472 50.3207 25.0667 49.7661 24.544C49.2221 24.0213 48.7954 23.408 48.4861 22.704C48.1874 22 48.0381 21.232 48.0381 20.4C48.0381 19.568 48.1874 18.8 48.4861 18.096C48.7954 17.392 49.2274 16.7787 49.7821 16.256C50.3367 15.7333 50.9874 15.328 51.7341 15.04C52.4807 14.752 53.2914 14.608 54.1661 14.608C55.0514 14.608 55.8621 14.752 56.5981 15.04C57.3447 15.328 57.9901 15.7333 58.5341 16.256C59.0887 16.7787 59.5207 17.392 59.8301 18.096C60.1394 18.7893 60.2941 19.5573 60.2941 20.4C60.2941 21.232 60.1394 22.0053 59.8301 22.72C59.5207 23.424 59.0887 24.0373 58.5341 24.56C57.9901 25.072 57.3447 25.472 56.5981 25.76C55.8621 26.048 55.0567 26.192 54.1821 26.192ZM54.1661 23.984C54.6674 23.984 55.1261 23.8987 55.5421 23.728C55.9687 23.5573 56.3421 23.312 56.6621 22.992C56.9821 22.672 57.2274 22.2933 57.3981 21.856C57.5794 21.4187 57.6701 20.9333 57.6701 20.4C57.6701 19.8667 57.5794 19.3813 57.3981 18.944C57.2274 18.5067 56.9821 18.128 56.6621 17.808C56.3527 17.488 55.9847 17.2427 55.5581 17.072C55.1314 16.9013 54.6674 16.816 54.1661 16.816C53.6647 16.816 53.2007 16.9013 52.7741 17.072C52.3581 17.2427 51.9901 17.488 51.6701 17.808C51.3501 18.128 51.0994 18.5067 50.9181 18.944C50.7474 19.3813 50.6621 19.8667 50.6621 20.4C50.6621 20.9227 50.7474 21.408 50.9181 21.856C51.0994 22.2933 51.3447 22.672 51.6541 22.992C51.9741 23.312 52.3474 23.5573 52.7741 23.728C53.2007 23.8987 53.6647 23.984 54.1661 23.984ZM60.6138 26L65.6058 14.8H68.1658L73.1738 26H70.4538L66.3578 16.112H67.3818L63.2698 26H60.6138ZM63.1098 23.6L63.7978 21.632H69.5578L70.2618 23.6H63.1098ZM74.3358 26V14.8H79.4238C80.6398 14.8 81.7118 15.0347 82.6398 15.504C83.5678 15.9627 84.2931 16.608 84.8158 17.44C85.3385 18.272 85.5998 19.2587 85.5998 20.4C85.5998 21.5307 85.3385 22.5173 84.8158 23.36C84.2931 24.192 83.5678 24.8427 82.6398 25.312C81.7118 25.7707 80.6398 26 79.4238 26H74.3358ZM76.9278 23.872H79.2958C80.0425 23.872 80.6878 23.7333 81.2318 23.456C81.7865 23.168 82.2131 22.7627 82.5118 22.24C82.8211 21.7173 82.9758 21.104 82.9758 20.4C82.9758 19.6853 82.8211 19.072 82.5118 18.56C82.2131 18.0373 81.7865 17.6373 81.2318 17.36C80.6878 17.072 80.0425 16.928 79.2958 16.928H76.9278V23.872Z" fill="#F8F5E1"/>
</svg>
