<svg width="58" height="58" viewBox="0 0 58 58" fill="none" xmlns="http://www.w3.org/2000/svg">
<path fill-rule="evenodd" clip-rule="evenodd" d="M28.9991 51.3068C41.3194 51.3068 51.3068 41.3194 51.3068 28.9991C51.3068 16.6789 41.3194 6.69141 28.9991 6.69141C16.6789 6.69141 6.69141 16.6789 6.69141 28.9991C6.69141 41.3194 16.6789 51.3068 28.9991 51.3068ZM31.4777 15.3666C31.4777 13.9977 30.368 12.888 28.9991 12.888C27.6301 12.888 26.5205 13.9977 26.5205 15.3666V28.3794C26.5205 30.0907 27.9075 31.4777 29.6188 31.4777H37.6743C39.0433 31.4777 40.1529 30.368 40.1529 28.9991C40.1529 27.6301 39.0433 26.5205 37.6743 26.5205H31.4777V15.3666Z" fill="white"/>
</svg>
