<svg width="52" height="52" viewBox="0 0 52 52" fill="none" xmlns="http://www.w3.org/2000/svg">
<path fill-rule="evenodd" clip-rule="evenodd" d="M47.6673 26.0007C47.6673 37.9667 37.9667 47.6673 26.0007 47.6673C14.0345 47.6673 4.33398 37.9667 4.33398 26.0007C4.33398 14.0345 14.0345 4.33398 26.0007 4.33398C37.9667 4.33398 47.6673 14.0345 47.6673 26.0007ZM34.733 19.4349C35.3676 20.0695 35.3676 21.0984 34.733 21.733L23.8996 32.5663C23.265 33.2009 22.2363 33.2009 21.6016 32.5663L17.2683 28.233C16.6337 27.5984 16.6337 26.5696 17.2683 25.935C17.9029 25.3004 18.9318 25.3004 19.5664 25.935L22.7507 29.1191L27.5927 24.2771L32.435 19.4349C33.0696 18.8003 34.0984 18.8003 34.733 19.4349Z" fill="white"/>
</svg>
