<svg width="32" height="32" viewBox="0 0 32 32" fill="none" xmlns="http://www.w3.org/2000/svg">
<path d="M16 0C7.1824 0 0 7.1824 0 16C0 24.8176 7.1824 32 16 32C24.8176 32 32 24.8176 32 16C32 7.1824 24.8176 0 16 0ZM16 3.2C23.0882 3.2 28.8 8.91181 28.8 16C28.8 22.4232 24.1045 27.7008 17.95 28.6375V19.8156H21.675L22.2594 16.0312H17.95V13.9625C17.95 12.3897 18.4624 10.9937 19.9344 10.9937H22.2969V7.69062C21.8809 7.63462 21.0029 7.5125 19.3437 7.5125C15.8781 7.5125 13.8469 9.3429 13.8469 13.5125V16.0312H10.2844V19.8156H13.8469V28.6063C7.79245 27.5854 3.19998 22.3524 3.19998 16C3.19998 8.91181 8.91181 3.2 16 3.2Z" fill="white"/>
</svg>
