<svg width="32" height="32" viewBox="0 0 32 32" fill="none" xmlns="http://www.w3.org/2000/svg">
<path d="M16.066 23.8437C16.4587 23.8437 16.7901 23.7086 17.0603 23.4384C17.3308 23.1679 17.466 22.8363 17.466 22.4437C17.466 22.0512 17.3308 21.7198 17.0603 21.4494C16.7901 21.1789 16.4587 21.0437 16.066 21.0437C15.6733 21.0437 15.3419 21.1789 15.0717 21.4494C14.8012 21.7198 14.666 22.0512 14.666 22.4437C14.666 22.8363 14.8012 23.1679 15.0717 23.4384C15.3419 23.7086 15.6733 23.8437 16.066 23.8437ZM14.8884 18.8883H17.0217C17.0217 18.2586 17.0976 17.7141 17.2493 17.255C17.4011 16.7957 17.8586 16.2363 18.6217 15.577C19.2735 14.9992 19.7512 14.4381 20.055 13.8937C20.3586 13.3492 20.5104 12.7326 20.5104 12.0437C20.5104 10.8437 20.103 9.89557 19.2883 9.19935C18.4735 8.50313 17.4363 8.15502 16.177 8.15502C15.029 8.15502 14.0457 8.44757 13.227 9.03268C12.4086 9.61779 11.8216 10.3845 11.466 11.3327L13.377 12.066C13.577 11.5178 13.9048 11.0511 14.3603 10.666C14.8159 10.2809 15.3992 10.0883 16.1103 10.0883C16.8512 10.0883 17.4365 10.2901 17.866 10.6937C18.2956 11.0975 18.5104 11.5919 18.5104 12.177C18.5104 12.6512 18.3697 13.0976 18.0883 13.516C17.8068 13.9345 17.4141 14.3548 16.9103 14.777C16.1401 15.4512 15.6106 16.0512 15.3217 16.577C15.0328 17.103 14.8884 17.8735 14.8884 18.8883ZM15.9993 29.3327C14.1698 29.3327 12.4439 28.9827 10.8217 28.2827C9.19946 27.5827 7.78457 26.629 6.57702 25.4217C5.36968 24.2141 4.41602 22.7992 3.71602 21.177C3.01602 19.5548 2.66602 17.8289 2.66602 15.9993C2.66602 14.1549 3.01602 12.4216 3.71602 10.7993C4.41602 9.17713 5.36968 7.76602 6.57702 6.56602C7.78457 5.36602 9.19946 4.41602 10.8217 3.71602C12.4439 3.01602 14.1698 2.66602 15.9993 2.66602C17.8438 2.66602 19.5771 3.01602 21.1994 3.71602C22.8216 4.41602 24.2327 5.36602 25.4327 6.56602C26.6327 7.76602 27.5827 9.17713 28.2827 10.7993C28.9827 12.4216 29.3327 14.1549 29.3327 15.9993C29.3327 17.8289 28.9827 19.5548 28.2827 21.177C27.5827 22.7992 26.6327 24.2141 25.4327 25.4217C24.2327 26.629 22.8216 27.5827 21.1994 28.2827C19.5771 28.9827 17.8438 29.3327 15.9993 29.3327ZM15.9993 27.1104C19.0956 27.1104 21.7215 26.0289 23.877 23.866C26.0326 21.7031 27.1104 19.0809 27.1104 15.9993C27.1104 12.9031 26.0326 10.2772 23.877 8.12168C21.7215 5.96613 19.0956 4.88835 15.9993 4.88835C12.9178 4.88835 10.2956 5.96613 8.13268 8.12168C5.96979 10.2772 4.88835 12.9031 4.88835 15.9993C4.88835 19.0809 5.96979 21.7031 8.13268 23.866C10.2956 26.0289 12.9178 27.1104 15.9993 27.1104Z" fill="black"/>
</svg>
