<svg xmlns="http://www.w3.org/2000/svg" fill="none" viewBox="40 20 200 50.5">
<g filter="url(#filter0_dd_786_663)">
<rect x="41" y="21" width="198" height="48" rx="7" stroke="black" stroke-width="2"/>
<path d="M78.8921 44.84H84.2681V46.92H78.8921V44.84ZM79.0841 51H76.4921V39.8H84.9561V41.88H79.0841V51ZM89.0948 44.312H94.4868V46.328H89.0948V44.312ZM89.2868 48.92H95.3828V51H86.7108V39.8H95.1748V41.88H89.2868V48.92ZM95.9732 51L100.965 39.8H103.525L108.533 51H105.813L101.717 41.112H102.741L98.6292 51H95.9732ZM98.4692 48.6L99.1572 46.632H104.917L105.621 48.6H98.4692ZM111.453 51V41.912H107.869V39.8H117.629V41.912H114.045V51H111.453ZM123.812 51.192C122.222 51.192 120.98 50.7493 120.084 49.864C119.188 48.9787 118.74 47.7147 118.74 46.072V39.8H121.332V45.976C121.332 47.0427 121.55 47.8107 121.988 48.28C122.425 48.7493 123.038 48.984 123.828 48.984C124.617 48.984 125.23 48.7493 125.668 48.28C126.105 47.8107 126.324 47.0427 126.324 45.976V39.8H128.884V46.072C128.884 47.7147 128.436 48.9787 127.54 49.864C126.644 50.7493 125.401 51.192 123.812 51.192ZM131.445 51V39.8H136.293C137.296 39.8 138.16 39.9653 138.885 40.296C139.611 40.616 140.171 41.08 140.565 41.688C140.96 42.296 141.157 43.0213 141.157 43.864C141.157 44.696 140.96 45.416 140.565 46.024C140.171 46.6213 139.611 47.08 138.885 47.4C138.16 47.72 137.296 47.88 136.293 47.88H132.885L134.037 46.744V51H131.445ZM138.565 51L135.765 46.936H138.533L141.365 51H138.565ZM134.037 47.032L132.885 45.816H136.149C136.949 45.816 137.547 45.6453 137.941 45.304C138.336 44.952 138.533 44.472 138.533 43.864C138.533 43.2453 138.336 42.7653 137.941 42.424C137.547 42.0827 136.949 41.912 136.149 41.912H132.885L134.037 40.68V47.032ZM145.595 44.312H150.987V46.328H145.595V44.312ZM145.787 48.92H151.883V51H143.211V39.8H151.675V41.88H145.787V48.92ZM153.945 51V39.8H159.033C160.249 39.8 161.321 40.0347 162.249 40.504C163.177 40.9627 163.903 41.608 164.425 42.44C164.948 43.272 165.209 44.2587 165.209 45.4C165.209 46.5307 164.948 47.5173 164.425 48.36C163.903 49.192 163.177 49.8427 162.249 50.312C161.321 50.7707 160.249 51 159.033 51H153.945ZM156.537 48.872H158.905C159.652 48.872 160.297 48.7333 160.841 48.456C161.396 48.168 161.823 47.7627 162.121 47.24C162.431 46.7173 162.585 46.104 162.585 45.4C162.585 44.6853 162.431 44.072 162.121 43.56C161.823 43.0373 161.396 42.6373 160.841 42.36C160.297 42.072 159.652 41.928 158.905 41.928H156.537V48.872Z" fill="black"/>
<path d="M232.667 39.0333L230.611 37L219.333 48.2777L208.055 37L206 39.0333L219.333 52.3667L232.667 39.0333Z" fill="black"/>
<line x1="195.5" y1="21" x2="195.5" y2="70" stroke="black"/>
</g>
<defs>
<filter id="filter0_dd_786_663" x="0" y="0" width="280" height="130" filterUnits="userSpaceOnUse" color-interpolation-filters="sRGB">
<feFlood flood-opacity="0" result="BackgroundImageFix"/>
<feColorMatrix in="SourceAlpha" type="matrix" values="0 0 0 0 0 0 0 0 0 0 0 0 0 0 0 0 0 0 127 0" result="hardAlpha"/>
<feOffset dy="20"/>
<feGaussianBlur stdDeviation="20"/>
<feColorMatrix type="matrix" values="0 0 0 0 0.980392 0 0 0 0 0.388235 0 0 0 0 0.137255 0 0 0 0.24 0"/>
<feBlend mode="normal" in2="BackgroundImageFix" result="effect1_dropShadow_786_663"/>
<feColorMatrix in="SourceAlpha" type="matrix" values="0 0 0 0 0 0 0 0 0 0 0 0 0 0 0 0 0 0 127 0" result="hardAlpha"/>
<feOffset dy="5"/>
<feGaussianBlur stdDeviation="5"/>
<feColorMatrix type="matrix" values="0 0 0 0 0.992157 0 0 0 0 0.447059 0 0 0 0 0.360784 0 0 0 0.22 0"/>
<feBlend mode="normal" in2="effect1_dropShadow_786_663" result="effect2_dropShadow_786_663"/>
<feBlend mode="normal" in="SourceGraphic" in2="effect2_dropShadow_786_663" result="shape"/>
</filter>
</defs>
</svg>