<svg width="100" height="30" viewBox="0 0 100 30" fill="none" xmlns="http://www.w3.org/2000/svg">
<rect width="100" height="30" rx="8" fill="#F17228"/>
<path d="M12.07 11H13.07V18H12.07V11ZM8.05 18H7.05V11H8.05V18ZM12.16 14.88H7.95V14.01H12.16V14.88ZM17.3852 18.06C16.8186 18.06 16.3186 17.9433 15.8852 17.71C15.4586 17.4767 15.1252 17.1567 14.8852 16.75C14.6519 16.3433 14.5352 15.8767 14.5352 15.35C14.5352 14.8233 14.6486 14.3567 14.8752 13.95C15.1086 13.5433 15.4252 13.2267 15.8252 13C16.2319 12.7667 16.6886 12.65 17.1952 12.65C17.7086 12.65 18.1619 12.7633 18.5552 12.99C18.9486 13.2167 19.2552 13.5367 19.4752 13.95C19.7019 14.3567 19.8152 14.8333 19.8152 15.38C19.8152 15.42 19.8119 15.4667 19.8052 15.52C19.8052 15.5733 19.8019 15.6233 19.7952 15.67H15.2852V14.98H19.2952L18.9052 15.22C18.9119 14.88 18.8419 14.5767 18.6952 14.31C18.5486 14.0433 18.3452 13.8367 18.0852 13.69C17.8319 13.5367 17.5352 13.46 17.1952 13.46C16.8619 13.46 16.5652 13.5367 16.3052 13.69C16.0452 13.8367 15.8419 14.0467 15.6952 14.32C15.5486 14.5867 15.4752 14.8933 15.4752 15.24V15.4C15.4752 15.7533 15.5552 16.07 15.7152 16.35C15.8819 16.6233 16.1119 16.8367 16.4052 16.99C16.6986 17.1433 17.0352 17.22 17.4152 17.22C17.7286 17.22 18.0119 17.1667 18.2652 17.06C18.5252 16.9533 18.7519 16.7933 18.9452 16.58L19.4752 17.2C19.2352 17.48 18.9352 17.6933 18.5752 17.84C18.2219 17.9867 17.8252 18.06 17.3852 18.06ZM24.2918 18V16.88L24.2418 16.67V14.76C24.2418 14.3533 24.1218 14.04 23.8818 13.82C23.6485 13.5933 23.2951 13.48 22.8218 13.48C22.5085 13.48 22.2018 13.5333 21.9018 13.64C21.6018 13.74 21.3485 13.8767 21.1418 14.05L20.7418 13.33C21.0151 13.11 21.3418 12.9433 21.7218 12.83C22.1085 12.71 22.5118 12.65 22.9318 12.65C23.6585 12.65 24.2185 12.8267 24.6118 13.18C25.0051 13.5333 25.2018 14.0733 25.2018 14.8V18H24.2918ZM22.5518 18.06C22.1585 18.06 21.8118 17.9933 21.5118 17.86C21.2185 17.7267 20.9918 17.5433 20.8318 17.31C20.6718 17.07 20.5918 16.8 20.5918 16.5C20.5918 16.2133 20.6585 15.9533 20.7918 15.72C20.9318 15.4867 21.1551 15.3 21.4618 15.16C21.7751 15.02 22.1951 14.95 22.7218 14.95H24.4018V15.64H22.7618C22.2818 15.64 21.9585 15.72 21.7918 15.88C21.6251 16.04 21.5418 16.2333 21.5418 16.46C21.5418 16.72 21.6451 16.93 21.8518 17.09C22.0585 17.2433 22.3451 17.32 22.7118 17.32C23.0718 17.32 23.3851 17.24 23.6518 17.08C23.9251 16.92 24.1218 16.6867 24.2418 16.38L24.4318 17.04C24.3051 17.3533 24.0818 17.6033 23.7618 17.79C23.4418 17.97 23.0385 18.06 22.5518 18.06ZM26.9784 18V10.58H27.9384V18H26.9784ZM31.728 18.06C31.1947 18.06 30.7814 17.9167 30.488 17.63C30.1947 17.3433 30.048 16.9333 30.048 16.4V11.54H31.008V16.36C31.008 16.6467 31.078 16.8667 31.218 17.02C31.3647 17.1733 31.5714 17.25 31.838 17.25C32.138 17.25 32.388 17.1667 32.588 17L32.888 17.69C32.7414 17.8167 32.5647 17.91 32.358 17.97C32.158 18.03 31.948 18.06 31.728 18.06ZM29.148 13.49V12.7H32.528V13.49H29.148ZM36.8787 12.65C37.312 12.65 37.692 12.7333 38.0187 12.9C38.352 13.0667 38.612 13.32 38.7987 13.66C38.9853 14 39.0787 14.43 39.0787 14.95V18H38.1187V15.06C38.1187 14.5467 37.992 14.16 37.7387 13.9C37.492 13.64 37.142 13.51 36.6887 13.51C36.3487 13.51 36.052 13.5767 35.7987 13.71C35.5453 13.8433 35.3487 14.04 35.2087 14.3C35.0753 14.56 35.0087 14.8833 35.0087 15.27V18H34.0487V10.58H35.0087V14.13L34.8187 13.75C34.992 13.4033 35.2587 13.1333 35.6187 12.94C35.9787 12.7467 36.3987 12.65 36.8787 12.65ZM40.9877 20C40.7343 20 40.4877 19.9567 40.2477 19.87C40.0077 19.79 39.801 19.67 39.6277 19.51L40.0377 18.79C40.171 18.9167 40.3177 19.0133 40.4777 19.08C40.6377 19.1467 40.8077 19.18 40.9877 19.18C41.221 19.18 41.4143 19.12 41.5677 19C41.721 18.88 41.8643 18.6667 41.9977 18.36L42.3277 17.63L42.4277 17.51L44.5077 12.7H45.4477L42.8777 18.53C42.7243 18.9033 42.551 19.1967 42.3577 19.41C42.171 19.6233 41.9643 19.7733 41.7377 19.86C41.511 19.9533 41.261 20 40.9877 20ZM42.2477 18.17L39.8277 12.7H40.8277L42.8877 17.42L42.2477 18.17ZM49.1691 18V11H52.3091C53.1158 11 53.7358 11.1633 54.1691 11.49C54.6025 11.81 54.8191 12.25 54.8191 12.81C54.8191 13.19 54.7325 13.51 54.5591 13.77C54.3925 14.03 54.1658 14.23 53.8791 14.37C53.5925 14.51 53.2825 14.58 52.9491 14.58L53.1291 14.28C53.5291 14.28 53.8825 14.35 54.1891 14.49C54.4958 14.63 54.7391 14.8367 54.9191 15.11C55.0991 15.3767 55.1891 15.71 55.1891 16.11C55.1891 16.71 54.9625 17.1767 54.5091 17.51C54.0625 17.8367 53.3958 18 52.5091 18H49.1691ZM50.1691 17.19H52.4691C53.0225 17.19 53.4458 17.0967 53.7391 16.91C54.0325 16.7233 54.1791 16.43 54.1791 16.03C54.1791 15.6233 54.0325 15.3267 53.7391 15.14C53.4458 14.9533 53.0225 14.86 52.4691 14.86H50.0791V14.05H52.2191C52.7258 14.05 53.1191 13.9567 53.3991 13.77C53.6791 13.5833 53.8191 13.3033 53.8191 12.93C53.8191 12.5567 53.6791 12.2767 53.3991 12.09C53.1191 11.9033 52.7258 11.81 52.2191 11.81H50.1691V17.19ZM58.8675 18.06C58.3342 18.06 57.8608 17.9433 57.4475 17.71C57.0342 17.4767 56.7075 17.1567 56.4675 16.75C56.2275 16.3367 56.1075 15.87 56.1075 15.35C56.1075 14.8233 56.2275 14.3567 56.4675 13.95C56.7075 13.5433 57.0342 13.2267 57.4475 13C57.8608 12.7667 58.3342 12.65 58.8675 12.65C59.3942 12.65 59.8642 12.7667 60.2775 13C60.6975 13.2267 61.0242 13.5433 61.2575 13.95C61.4975 14.35 61.6175 14.8167 61.6175 15.35C61.6175 15.8767 61.4975 16.3433 61.2575 16.75C61.0242 17.1567 60.6975 17.4767 60.2775 17.71C59.8642 17.9433 59.3942 18.06 58.8675 18.06ZM58.8675 17.22C59.2075 17.22 59.5108 17.1433 59.7775 16.99C60.0508 16.8367 60.2642 16.62 60.4175 16.34C60.5708 16.0533 60.6475 15.7233 60.6475 15.35C60.6475 14.97 60.5708 14.6433 60.4175 14.37C60.2642 14.09 60.0508 13.8733 59.7775 13.72C59.5108 13.5667 59.2075 13.49 58.8675 13.49C58.5275 13.49 58.2242 13.5667 57.9575 13.72C57.6908 13.8733 57.4775 14.09 57.3175 14.37C57.1575 14.6433 57.0775 14.97 57.0775 15.35C57.0775 15.7233 57.1575 16.0533 57.3175 16.34C57.4775 16.62 57.6908 16.8367 57.9575 16.99C58.2242 17.1433 58.5275 17.22 58.8675 17.22ZM61.9994 18L64.2794 15.04L64.2694 15.53L62.0994 12.7H63.1694L64.8294 14.88H64.4194L66.0794 12.7H67.1294L64.9294 15.55L64.9394 15.04L67.2394 18H66.1494L64.3994 15.68L64.7894 15.74L63.0694 18H61.9994ZM70.4712 18.06C69.9045 18.06 69.4045 17.9433 68.9712 17.71C68.5445 17.4767 68.2112 17.1567 67.9712 16.75C67.7378 16.3433 67.6212 15.8767 67.6212 15.35C67.6212 14.8233 67.7345 14.3567 67.9612 13.95C68.1945 13.5433 68.5112 13.2267 68.9112 13C69.3178 12.7667 69.7745 12.65 70.2812 12.65C70.7945 12.65 71.2478 12.7633 71.6412 12.99C72.0345 13.2167 72.3412 13.5367 72.5612 13.95C72.7878 14.3567 72.9012 14.8333 72.9012 15.38C72.9012 15.42 72.8978 15.4667 72.8912 15.52C72.8912 15.5733 72.8878 15.6233 72.8812 15.67H68.3712V14.98H72.3812L71.9912 15.22C71.9978 14.88 71.9278 14.5767 71.7812 14.31C71.6345 14.0433 71.4312 13.8367 71.1712 13.69C70.9178 13.5367 70.6212 13.46 70.2812 13.46C69.9478 13.46 69.6512 13.5367 69.3912 13.69C69.1312 13.8367 68.9278 14.0467 68.7812 14.32C68.6345 14.5867 68.5612 14.8933 68.5612 15.24V15.4C68.5612 15.7533 68.6412 16.07 68.8012 16.35C68.9678 16.6233 69.1978 16.8367 69.4912 16.99C69.7845 17.1433 70.1212 17.22 70.5012 17.22C70.8145 17.22 71.0978 17.1667 71.3512 17.06C71.6112 16.9533 71.8378 16.7933 72.0312 16.58L72.5612 17.2C72.3212 17.48 72.0212 17.6933 71.6612 17.84C71.3078 17.9867 70.9112 18.06 70.4712 18.06ZM75.7542 18.06C75.3142 18.06 74.8942 18 74.4942 17.88C74.1009 17.76 73.7909 17.6133 73.5642 17.44L73.9642 16.68C74.1909 16.8333 74.4709 16.9633 74.8042 17.07C75.1376 17.1767 75.4776 17.23 75.8242 17.23C76.2709 17.23 76.5909 17.1667 76.7842 17.04C76.9842 16.9133 77.0842 16.7367 77.0842 16.51C77.0842 16.3433 77.0242 16.2133 76.9042 16.12C76.7842 16.0267 76.6242 15.9567 76.4242 15.91C76.2309 15.8633 76.0142 15.8233 75.7742 15.79C75.5342 15.75 75.2942 15.7033 75.0542 15.65C74.8142 15.59 74.5942 15.51 74.3942 15.41C74.1942 15.3033 74.0342 15.16 73.9142 14.98C73.7942 14.7933 73.7342 14.5467 73.7342 14.24C73.7342 13.92 73.8242 13.64 74.0042 13.4C74.1842 13.16 74.4376 12.9767 74.7642 12.85C75.0976 12.7167 75.4909 12.65 75.9442 12.65C76.2909 12.65 76.6409 12.6933 76.9942 12.78C77.3542 12.86 77.6476 12.9767 77.8742 13.13L77.4642 13.89C77.2242 13.73 76.9742 13.62 76.7142 13.56C76.4542 13.5 76.1942 13.47 75.9342 13.47C75.5142 13.47 75.2009 13.54 74.9942 13.68C74.7876 13.8133 74.6842 13.9867 74.6842 14.2C74.6842 14.38 74.7442 14.52 74.8642 14.62C74.9909 14.7133 75.1509 14.7867 75.3442 14.84C75.5442 14.8933 75.7642 14.94 76.0042 14.98C76.2442 15.0133 76.4842 15.06 76.7242 15.12C76.9642 15.1733 77.1809 15.25 77.3742 15.35C77.5742 15.45 77.7342 15.59 77.8542 15.77C77.9809 15.95 78.0442 16.19 78.0442 16.49C78.0442 16.81 77.9509 17.0867 77.7642 17.32C77.5776 17.5533 77.3142 17.7367 76.9742 17.87C76.6342 17.9967 76.2276 18.06 75.7542 18.06Z" fill="black"/>
<path d="M83.9532 18.8812L83.2193 18.1472L86.8159 14.5504L83.2193 10.9536L83.9532 10.2197L87.55 13.8164L91.1468 10.2197L91.8807 10.9536L88.2841 14.5504L91.8807 18.1472L91.1468 18.8812L87.55 15.2845L83.9532 18.8812Z" fill="black"/>
</svg>
