<svg width="32" height="31" viewBox="0 0 32 31" fill="none" xmlns="http://www.w3.org/2000/svg">
<path d="M16.7741 0.601691L20.8222 8.80443C20.9796 9.12302 21.2834 9.3436 21.635 9.39488L30.6874 10.7103C31.5726 10.8389 31.9263 11.9267 31.2856 12.5512L24.7351 18.9359C24.4808 19.1839 24.3646 19.5411 24.4246 19.8913L25.9708 28.9068C26.1222 29.7885 25.1967 30.4607 24.405 30.0445L16.3086 25.7881C15.9943 25.6226 15.6184 25.6226 15.3041 25.7881L7.20741 30.0445C6.41569 30.4607 5.49015 29.7885 5.64154 28.9068L7.18774 19.8913C7.2478 19.5411 7.13154 19.1839 6.87724 18.9359L0.327127 12.5509C-0.313553 11.9263 0.0401553 10.8385 0.925305 10.71L9.97772 9.39453C10.3293 9.3436 10.6332 9.12267 10.7905 8.80408L14.8387 0.601691C15.2345 -0.200564 16.3782 -0.200564 16.7741 0.601691Z" fill="black"/>
</svg>
