<svg width="32" height="32" viewBox="0 0 32 32" fill="none" xmlns="http://www.w3.org/2000/svg">
<path d="M15.9993 27.9775L14.4437 26.5775C12.1286 24.4646 10.2147 22.642 8.70202 21.1095C7.18913 19.5771 5.98457 18.2053 5.08835 16.9942C4.1919 15.7831 3.56413 14.6813 3.20502 13.6889C2.84568 12.6962 2.66602 11.6888 2.66602 10.6665C2.66602 8.63454 3.34746 6.93765 4.71035 5.57587C6.07346 4.21409 7.76235 3.5332 9.77702 3.5332C11.0068 3.5332 12.155 3.81465 13.2217 4.37754C14.2884 4.94065 15.2142 5.74809 15.9993 6.79987C16.8734 5.70365 17.8326 4.88509 18.877 4.3442C19.9215 3.80354 21.0364 3.5332 22.2217 3.5332C24.2363 3.5332 25.9252 4.21409 27.2883 5.57587C28.6512 6.93765 29.3327 8.63454 29.3327 10.6665C29.3327 11.6888 29.153 12.6962 28.7937 13.6889C28.4346 14.6813 27.8068 15.7831 26.9104 16.9942C26.0141 18.2053 24.8096 19.5771 23.2967 21.1095C21.784 22.642 19.8701 24.4646 17.555 26.5775L15.9993 27.9775ZM15.9993 25.0222C18.2102 23.0073 20.0297 21.2795 21.4577 19.8389C22.8855 18.398 24.0179 17.1386 24.855 16.0609C25.6919 14.9831 26.277 14.0229 26.6104 13.1802C26.9437 12.3375 27.1104 11.5008 27.1104 10.6699C27.1104 9.24542 26.6511 8.0702 25.7327 7.1442C24.8142 6.21843 23.6456 5.75554 22.2267 5.75554C21.1151 5.75554 20.0863 6.08698 19.1403 6.74987C18.1946 7.41276 17.4661 8.31831 16.955 9.46654H15.0217C14.5252 8.3332 13.8041 7.43131 12.8583 6.76087C11.9123 6.09065 10.8836 5.75554 9.77202 5.75554C8.35313 5.75554 7.18446 6.21843 6.26602 7.1442C5.34757 8.0702 4.88835 9.24665 4.88835 10.6735C4.88835 11.506 5.05502 12.3462 5.38835 13.1942C5.72168 14.0424 6.30679 15.0091 7.14368 16.0942C7.98079 17.1795 9.11791 18.4389 10.555 19.8722C11.9919 21.3055 13.8067 23.0222 15.9993 25.0222Z" fill="black"/>
</svg>
