<svg width="270" height="45" viewBox="0 0 270 45" fill="none" xmlns="http://www.w3.org/2000/svg">
<path d="M1.12 26V16.228H4.83C5.782 16.228 6.51 16.4987 7.014 17.04C7.518 17.5813 7.77 18.3187 7.77 19.252C7.77 20.1853 7.518 20.9227 7.014 21.464C6.51 22.0053 5.782 22.276 4.83 22.276H2.954V26H1.12ZM2.954 20.778H4.452C4.94667 20.778 5.30133 20.68 5.516 20.484C5.73067 20.2787 5.838 19.9567 5.838 19.518V18.986C5.838 18.5473 5.73067 18.23 5.516 18.034C5.30133 17.8287 4.94667 17.726 4.452 17.726H2.954V20.778ZM9.44453 24.586H11.2365V20.19H9.44453V18.776H13.0285V20.75H13.1405C13.2059 20.498 13.2945 20.2553 13.4065 20.022C13.5279 19.7793 13.6772 19.5693 13.8545 19.392C14.0412 19.2053 14.2652 19.056 14.5265 18.944C14.7879 18.832 15.1005 18.776 15.4645 18.776H16.2485V20.456H14.7645C14.2232 20.456 13.7985 20.6147 13.4905 20.932C13.1825 21.2493 13.0285 21.6553 13.0285 22.15V24.586H15.5345V26H9.44453V24.586ZM21.1571 26.168C20.5784 26.168 20.0651 26.0793 19.6171 25.902C19.1691 25.7247 18.7911 25.4727 18.4831 25.146C18.1844 24.8193 17.9557 24.4273 17.7971 23.97C17.6384 23.5033 17.5591 22.9807 17.5591 22.402C17.5591 21.814 17.6384 21.2867 17.7971 20.82C17.9651 20.3533 18.1984 19.9567 18.4971 19.63C18.7957 19.3033 19.1551 19.0513 19.5751 18.874C20.0044 18.6967 20.4851 18.608 21.0171 18.608C21.5397 18.608 22.0111 18.6967 22.4311 18.874C22.8511 19.042 23.2057 19.2847 23.4951 19.602C23.7937 19.9193 24.0224 20.302 24.1811 20.75C24.3397 21.198 24.4191 21.6927 24.4191 22.234V22.822H19.3511V23.004C19.3511 23.5267 19.5144 23.9513 19.8411 24.278C20.1677 24.5953 20.6251 24.754 21.2131 24.754C21.6611 24.754 22.0437 24.6653 22.3611 24.488C22.6877 24.3013 22.9584 24.0587 23.1731 23.76L24.1951 24.782C23.9337 25.1647 23.5511 25.4913 23.0471 25.762C22.5524 26.0327 21.9224 26.168 21.1571 26.168ZM21.0311 19.924C20.5271 19.924 20.1211 20.0827 19.8131 20.4C19.5051 20.7173 19.3511 21.1373 19.3511 21.66V21.758H22.6271V21.632C22.6271 21.1093 22.4824 20.694 22.1931 20.386C21.9131 20.078 21.5257 19.924 21.0311 19.924ZM28.3056 26L25.7156 18.776H27.5916L28.5576 21.842L29.3696 24.502H29.4676L30.2796 21.842L31.2456 18.776H33.0516L30.4616 26H28.3056ZM38.2261 17.656C37.8061 17.656 37.5075 17.5673 37.3301 17.39C37.1621 17.2127 37.0781 16.998 37.0781 16.746V16.41C37.0781 16.158 37.1621 15.9433 37.3301 15.766C37.5075 15.5887 37.8061 15.5 38.2261 15.5C38.6461 15.5 38.9401 15.5887 39.1081 15.766C39.2855 15.9433 39.3741 16.158 39.3741 16.41V16.746C39.3741 16.998 39.2855 17.2127 39.1081 17.39C38.9401 17.5673 38.6461 17.656 38.2261 17.656ZM34.9501 24.586H37.3301V20.19H34.9501V18.776H39.1221V24.586H41.3341V26H34.9501V24.586ZM46.1727 26.168C45.622 26.168 45.1273 26.0793 44.6887 25.902C44.2593 25.7247 43.8907 25.4727 43.5827 25.146C43.284 24.8193 43.0507 24.4227 42.8827 23.956C42.724 23.4893 42.6447 22.9667 42.6447 22.388C42.6447 21.8093 42.724 21.2867 42.8827 20.82C43.0507 20.3533 43.284 19.9567 43.5827 19.63C43.8907 19.3033 44.2593 19.0513 44.6887 18.874C45.1273 18.6967 45.622 18.608 46.1727 18.608C46.714 18.608 47.204 18.6967 47.6427 18.874C48.0813 19.0513 48.45 19.3033 48.7487 19.63C49.0567 19.9567 49.29 20.3533 49.4487 20.82C49.6167 21.2867 49.7007 21.8093 49.7007 22.388C49.7007 22.9667 49.6167 23.4893 49.4487 23.956C49.29 24.4227 49.0567 24.8193 48.7487 25.146C48.45 25.4727 48.0813 25.7247 47.6427 25.902C47.204 26.0793 46.714 26.168 46.1727 26.168ZM46.1727 24.796C46.686 24.796 47.092 24.642 47.3907 24.334C47.6893 24.0167 47.8387 23.5547 47.8387 22.948V21.828C47.8387 21.2213 47.6893 20.764 47.3907 20.456C47.092 20.1387 46.686 19.98 46.1727 19.98C45.6593 19.98 45.2533 20.1387 44.9547 20.456C44.656 20.764 44.5067 21.2213 44.5067 21.828V22.948C44.5067 23.5547 44.656 24.0167 44.9547 24.334C45.2533 24.642 45.6593 24.796 46.1727 24.796ZM55.9252 24.726H55.8552C55.6965 25.118 55.4492 25.4587 55.1132 25.748C54.7865 26.028 54.3292 26.168 53.7412 26.168C53.0319 26.168 52.4532 25.9347 52.0052 25.468C51.5665 24.992 51.3472 24.3153 51.3472 23.438V18.776H53.1392V23.186C53.1392 24.2313 53.5919 24.754 54.4972 24.754C54.6745 24.754 54.8472 24.7307 55.0152 24.684C55.1925 24.6373 55.3465 24.5673 55.4772 24.474C55.6172 24.3713 55.7245 24.25 55.7992 24.11C55.8832 23.97 55.9252 23.802 55.9252 23.606V18.776H57.7172V26H55.9252V24.726ZM62.9337 26.168C62.1404 26.168 61.4544 26.0467 60.8757 25.804C60.2971 25.552 59.8444 25.216 59.5177 24.796L60.5677 23.844C60.8664 24.1707 61.2071 24.4227 61.5897 24.6C61.9817 24.7773 62.4344 24.866 62.9477 24.866C63.3957 24.866 63.7551 24.7913 64.0257 24.642C64.2964 24.4927 64.4317 24.264 64.4317 23.956C64.4317 23.6947 64.3384 23.5173 64.1517 23.424C63.9744 23.3307 63.7364 23.2607 63.4377 23.214L62.2757 23.032C61.9771 22.9853 61.6831 22.92 61.3937 22.836C61.1137 22.7427 60.8617 22.6167 60.6377 22.458C60.4231 22.2993 60.2504 22.0987 60.1197 21.856C59.9891 21.604 59.9237 21.3007 59.9237 20.946C59.9237 20.19 60.2037 19.6113 60.7637 19.21C61.3331 18.8087 62.1124 18.608 63.1017 18.608C63.8017 18.608 64.3944 18.706 64.8797 18.902C65.3744 19.098 65.7804 19.3733 66.0977 19.728L65.1597 20.764C64.9544 20.54 64.6791 20.344 64.3337 20.176C63.9977 19.9987 63.5684 19.91 63.0457 19.91C62.1311 19.91 61.6737 20.1947 61.6737 20.764C61.6737 21.0253 61.7671 21.2073 61.9537 21.31C62.1404 21.4033 62.3831 21.4733 62.6817 21.52L63.8297 21.702C64.1377 21.7487 64.4317 21.8187 64.7117 21.912C65.0011 21.996 65.2531 22.1173 65.4677 22.276C65.6917 22.4347 65.8691 22.6353 65.9997 22.878C66.1304 23.1207 66.1957 23.4193 66.1957 23.774C66.1957 24.5207 65.9064 25.1087 65.3277 25.538C64.7584 25.958 63.9604 26.168 62.9337 26.168Z" fill="#272727"/>
<path d="M96.774 26V24.502H99.462V17.558H99.336L97.208 20.078L96.06 19.112L98.482 16.228H101.296V24.502H103.508V26H96.774Z" fill="#E67E22"/>
<path d="M147.7 26H140.812V24.292L143.948 21.618C144.471 21.17 144.858 20.764 145.11 20.4C145.362 20.0267 145.488 19.63 145.488 19.21V19.07C145.488 18.6033 145.357 18.2487 145.096 18.006C144.835 17.7633 144.471 17.642 144.004 17.642C143.491 17.642 143.099 17.782 142.828 18.062C142.557 18.342 142.361 18.6873 142.24 19.098L140.644 18.496C140.747 18.1787 140.891 17.8753 141.078 17.586C141.274 17.2873 141.512 17.026 141.792 16.802C142.081 16.578 142.422 16.4007 142.814 16.27C143.206 16.13 143.654 16.06 144.158 16.06C144.681 16.06 145.143 16.1347 145.544 16.284C145.955 16.424 146.3 16.6247 146.58 16.886C146.86 17.138 147.07 17.4413 147.21 17.796C147.359 18.1507 147.434 18.538 147.434 18.958C147.434 19.3593 147.369 19.728 147.238 20.064C147.117 20.4 146.944 20.722 146.72 21.03C146.496 21.3287 146.23 21.618 145.922 21.898C145.623 22.178 145.297 22.458 144.942 22.738L142.814 24.46H147.7V26Z" fill="#272727"/>
<path d="M188.308 20.176C188.896 20.176 189.325 20.0593 189.596 19.826C189.876 19.5927 190.016 19.2987 190.016 18.944V18.846C190.016 18.4447 189.881 18.132 189.61 17.908C189.349 17.684 188.985 17.572 188.518 17.572C188.07 17.572 187.678 17.6747 187.342 17.88C187.006 18.0853 186.717 18.3747 186.474 18.748L185.284 17.684C185.452 17.46 185.639 17.25 185.844 17.054C186.059 16.8487 186.297 16.676 186.558 16.536C186.829 16.3867 187.127 16.27 187.454 16.186C187.781 16.102 188.154 16.06 188.574 16.06C189.069 16.06 189.521 16.1207 189.932 16.242C190.352 16.354 190.707 16.522 190.996 16.746C191.295 16.97 191.523 17.2407 191.682 17.558C191.85 17.866 191.934 18.216 191.934 18.608C191.934 18.916 191.883 19.196 191.78 19.448C191.677 19.7 191.537 19.9193 191.36 20.106C191.192 20.2927 190.991 20.4467 190.758 20.568C190.534 20.6893 190.291 20.778 190.03 20.834V20.904C190.319 20.96 190.59 21.0533 190.842 21.184C191.094 21.3053 191.313 21.464 191.5 21.66C191.687 21.856 191.836 22.094 191.948 22.374C192.06 22.6447 192.116 22.9527 192.116 23.298C192.116 23.7273 192.027 24.1193 191.85 24.474C191.673 24.8287 191.421 25.132 191.094 25.384C190.777 25.636 190.389 25.832 189.932 25.972C189.484 26.1027 188.98 26.168 188.42 26.168C187.953 26.168 187.538 26.1167 187.174 26.014C186.81 25.9207 186.488 25.79 186.208 25.622C185.928 25.454 185.685 25.2627 185.48 25.048C185.275 24.824 185.093 24.5953 184.934 24.362L186.292 23.312C186.525 23.704 186.801 24.026 187.118 24.278C187.445 24.53 187.888 24.656 188.448 24.656C189.008 24.656 189.437 24.53 189.736 24.278C190.044 24.0167 190.198 23.6573 190.198 23.2V23.088C190.198 22.64 190.035 22.2993 189.708 22.066C189.381 21.8233 188.919 21.702 188.322 21.702H187.342V20.176H188.308Z" fill="#272727"/>
<path d="M223.646 18.986H223.506V26H221.938V16.228H224.192L226.754 23.242H226.894V16.228H228.462V26H226.208L223.646 18.986ZM233.763 26.168C233.184 26.168 232.671 26.0793 232.223 25.902C231.775 25.7247 231.397 25.4727 231.089 25.146C230.79 24.8193 230.561 24.4273 230.403 23.97C230.244 23.5033 230.165 22.9807 230.165 22.402C230.165 21.814 230.244 21.2867 230.403 20.82C230.571 20.3533 230.804 19.9567 231.103 19.63C231.401 19.3033 231.761 19.0513 232.181 18.874C232.61 18.6967 233.091 18.608 233.623 18.608C234.145 18.608 234.617 18.6967 235.037 18.874C235.457 19.042 235.811 19.2847 236.101 19.602C236.399 19.9193 236.628 20.302 236.787 20.75C236.945 21.198 237.025 21.6927 237.025 22.234V22.822H231.957V23.004C231.957 23.5267 232.12 23.9513 232.447 24.278C232.773 24.5953 233.231 24.754 233.819 24.754C234.267 24.754 234.649 24.6653 234.967 24.488C235.293 24.3013 235.564 24.0587 235.779 23.76L236.801 24.782C236.539 25.1647 236.157 25.4913 235.653 25.762C235.158 26.0327 234.528 26.168 233.763 26.168ZM233.637 19.924C233.133 19.924 232.727 20.0827 232.419 20.4C232.111 20.7173 231.957 21.1373 231.957 21.66V21.758H235.233V21.632C235.233 21.1093 235.088 20.694 234.799 20.386C234.519 20.078 234.131 19.924 233.637 19.924ZM238.265 26L240.967 22.332L238.419 18.776H240.477L241.345 20.05L242.017 21.058H242.115L242.787 20.05L243.655 18.776H245.559L243.011 22.248L245.713 26H243.641L242.647 24.544L241.961 23.522H241.863L241.177 24.544L240.183 26H238.265ZM250.874 26C250.183 26 249.674 25.818 249.348 25.454C249.021 25.09 248.858 24.6187 248.858 24.04V20.19H246.758V18.776H248.186C248.475 18.776 248.68 18.72 248.802 18.608C248.923 18.4867 248.984 18.2767 248.984 17.978V16.228H250.65V18.776H253.59V20.19H250.65V24.586H253.59V26H250.874Z" fill="#272727"/>
</svg>
