<svg width="32" height="32" viewBox="0 0 32 32" fill="none" xmlns="http://www.w3.org/2000/svg">
<path d="M2.6668 32C1.9468 32 1.32227 31.6695 0.7932 31.0085C0.2644 30.3472 0 29.5665 0 28.6665V3.3335C0 2.4335 0.2644 1.65283 0.7932 0.991501C1.32227 0.330501 1.9468 0 2.6668 0H29.3332C30.0532 0 30.6777 0.330501 31.2068 0.991501C31.7356 1.65283 32 2.4335 32 3.3335V28.6665C32 29.5665 31.7356 30.3472 31.2068 31.0085C30.6777 31.6695 30.0532 32 29.3332 32H2.6668ZM16 17.2665L2.6668 6.5V28.6665H29.3332V6.5L16 17.2665ZM16 13.9335L29.2268 3.3335H2.8L16 13.9335ZM2.6668 6.5V3.3335V28.6665V6.5Z" fill="white"/>
</svg>
