<svg width="24" height="24" viewBox="0 0 24 24" fill="none" xmlns="http://www.w3.org/2000/svg">
<path d="M1.66782 23.9374L0.112482 22.3818L14.0012 8.4931C13.542 7.47088 13.4495 6.38199 13.7235 5.22643C13.9975 4.07088 14.6308 3.00421 15.6235 2.02643C16.6828 0.98199 17.9273 0.333769 19.3568 0.0817689C20.7864 -0.170009 21.9567 0.159657 22.8678 1.07077C23.7938 1.99677 24.1235 3.1671 23.8568 4.58177C23.5902 5.99666 22.9124 7.25599 21.8235 8.35977C20.905 9.30777 19.8754 9.92621 18.7345 10.2151C17.5938 10.504 16.542 10.4411 15.5791 10.0264L13.5345 12.0708L23.8458 22.3818L22.2901 23.9374L11.9791 13.6484L1.66782 23.9374ZM5.75682 12.3374L1.77915 8.35977C0.623593 7.20421 0.0309265 5.8301 0.00114871 4.23744C-0.0284068 2.64477 0.512371 1.24844 1.62348 0.0484356L9.82348 8.27077L5.75682 12.3374Z" fill="black"/>
</svg>
