<svg width="32" height="32" viewBox="0 0 32 32" fill="none" xmlns="http://www.w3.org/2000/svg">
<path d="M6.75567 27.9997C5.99256 27.9997 5.34256 27.7312 4.80567 27.194C4.26856 26.6572 4 26.0072 4 25.244V7.17738C4 6.41449 4.35556 5.88671 5.06667 5.59405C5.77778 5.3016 6.40744 5.42938 6.95567 5.97738L8.95567 7.97738L7.42233 9.51071L8.33333 10.422L9.86667 8.88871L13.6223 12.644L12.089 14.1774L13 15.0887L14.5333 13.5554L18.311 17.333L16.7777 18.8664L17.689 19.7774L19.2223 18.244L22.9777 21.9997L21.4443 23.533L22.3557 24.444L23.889 22.9107L25.7777 24.7997C26.3703 25.3924 26.513 26.0738 26.2057 26.844C25.8981 27.6145 25.3407 27.9997 24.5333 27.9997H6.75567ZM7.111 24.8887H21.089L7.111 10.9107V24.8887Z" fill="black"/>
</svg>
