<svg width="52" height="52" viewBox="0 0 52 52" fill="none" xmlns="http://www.w3.org/2000/svg">
<path fill-rule="evenodd" clip-rule="evenodd" d="M8.5919 5.60362C7.00195 7.19354 7.00195 9.75251 7.00195 14.8704V39.2982C7.00195 44.4161 7.00195 46.975 8.5919 48.565C10.1818 50.1549 12.7408 50.1549 17.8587 50.1549H34.1439C39.2618 50.1549 41.8207 50.1549 43.4107 48.565C45.0006 46.975 45.0006 44.4161 45.0006 39.2982V14.8704C45.0006 9.75251 45.0006 7.19354 43.4107 5.60362C41.8207 4.01367 39.2618 4.01367 34.1439 4.01367H17.8587C12.7408 4.01367 10.1818 4.01367 8.5919 5.60362ZM17.8587 14.8704C16.3597 14.8704 15.1445 16.0856 15.1445 17.5846C15.1445 19.0836 16.3597 20.2988 17.8587 20.2988H34.1439C35.6429 20.2988 36.8581 19.0836 36.8581 17.5846C36.8581 16.0856 35.6429 14.8704 34.1439 14.8704H17.8587ZM17.8587 25.7272C16.3597 25.7272 15.1445 26.9424 15.1445 28.4414C15.1445 29.9405 16.3597 31.1556 17.8587 31.1556H34.1439C35.6429 31.1556 36.8581 29.9405 36.8581 28.4414C36.8581 26.9424 35.6429 25.7272 34.1439 25.7272H17.8587ZM17.8587 36.584C16.3597 36.584 15.1445 37.7991 15.1445 39.2982C15.1445 40.7972 16.3597 42.0124 17.8587 42.0124H28.7155C30.2145 42.0124 31.4297 40.7972 31.4297 39.2982C31.4297 37.7991 30.2145 36.584 28.7155 36.584H17.8587Z" fill="white" stroke="black" stroke-width="0.00064"/>
</svg>
