<svg width="294" height="295" viewBox="0 0 294 295" fill="none" xmlns="http://www.w3.org/2000/svg">
<path d="M57.1677 45.0701V129.778V129.062V249.929V45.0701ZM85.5448 167.987H137.607C139.718 164.094 142.101 160.441 144.755 157.026C147.409 153.611 150.403 150.435 153.738 147.5H85.5448V167.987ZM85.5448 219.2H130.361C129.612 215.787 129.084 212.373 128.778 208.958C128.472 205.543 128.455 202.129 128.726 198.716H85.5448V219.2ZM57.1677 270.416C51.6552 270.416 46.8736 268.385 42.8229 264.323C38.7743 260.258 36.75 255.46 36.75 249.929V45.0701C36.75 39.5389 38.7743 34.7411 42.8229 30.6766C46.8736 26.6142 51.6552 24.583 57.1677 24.583H163.538L232.75 94.0309V135.823C229.551 134.321 226.25 133.074 222.849 132.083C219.445 131.093 215.94 130.325 212.332 129.778V103.658H153.33V45.0701H57.1677V249.929H146.081C149.893 254.436 154.147 258.415 158.843 261.864C163.539 265.312 168.676 268.163 174.256 270.416H57.1677ZM202.125 235.591C211.38 235.591 219.138 232.449 225.4 226.166C231.662 219.883 234.793 212.099 234.793 202.812C234.793 193.526 231.662 185.741 225.4 179.458C219.138 173.175 211.38 170.033 202.125 170.033C192.87 170.033 185.112 173.175 178.85 179.458C172.588 185.741 169.457 193.526 169.457 202.812C169.457 212.099 172.588 219.883 178.85 226.166C185.112 232.449 192.87 235.591 202.125 235.591ZM264.6 279.841L231.697 246.856C227.431 249.724 222.798 251.978 217.796 253.617C212.794 255.256 207.57 256.075 202.125 256.075C187.38 256.075 174.846 250.894 164.524 240.532C154.203 230.172 149.043 217.591 149.043 202.788C149.043 187.986 154.206 175.413 164.533 165.068C174.858 154.722 187.396 149.549 202.15 149.549C216.901 149.549 229.431 154.727 239.742 165.083C250.052 175.441 255.207 188.017 255.207 202.812C255.207 208.276 254.391 213.517 252.757 218.536C251.124 223.555 248.878 228.205 246.02 232.484L278.893 265.5L264.6 279.841Z" fill="#D8D5C5"/>
</svg>
