<svg width="32" height="32" viewBox="0 0 32 32" fill="none" xmlns="http://www.w3.org/2000/svg">
<path d="M30.0444 32C26.5185 32 22.963 31.1778 19.3778 29.5333C15.7926 27.8889 12.4889 25.5556 9.46667 22.5333C6.44444 19.5111 4.11111 16.2074 2.46667 12.6222C0.822222 9.03704 0 5.48148 0 1.95556C0 1.39674 0.186223 0.931111 0.558667 0.558667C0.931111 0.186223 1.39674 0 1.95556 0H8.50356C8.91837 0 9.27896 0.14563 9.58533 0.43689C9.89141 0.728445 10.0938 1.08652 10.1924 1.51111L11.3756 7.308C11.4363 7.74948 11.4271 8.13822 11.348 8.47422C11.2692 8.80993 11.1089 9.09852 10.8671 9.34L6.47422 13.7778C7.18533 15.0124 7.96311 16.1754 8.80756 17.2667C9.652 18.3579 10.5828 19.3975 11.6 20.3853C12.637 21.4419 13.7284 22.4123 14.8742 23.2964C16.0197 24.1803 17.2246 24.9678 18.4889 25.6591L22.6964 21.3631C22.9827 21.0567 23.3273 20.8419 23.7302 20.7187C24.1335 20.5951 24.5296 20.563 24.9187 20.6222L30.4889 21.8076C30.9236 21.9261 31.284 22.1561 31.5702 22.4978C31.8567 22.8394 32 23.2216 32 23.6444V30.0444C32 30.6033 31.8138 31.0689 31.4413 31.4413C31.0689 31.8138 30.6033 32 30.0444 32ZM5.02222 11.0222L8.4 7.61467L7.46667 2.96311H2.97778C3.06667 4.19748 3.26919 5.47155 3.58533 6.78533C3.90119 8.09881 4.38015 9.51111 5.02222 11.0222ZM21.2591 27.0813C22.4544 27.6247 23.7261 28.0643 25.0742 28.4C26.4224 28.7357 27.7433 28.9382 29.0369 29.0076V24.5333L24.5924 23.6298L21.2591 27.0813Z" fill="white"/>
</svg>
