<svg width="32" height="32" viewBox="0 0 32 32" fill="none" xmlns="http://www.w3.org/2000/svg">
<path d="M16.003 15.7332C17.012 15.7332 17.8748 15.4457 18.5915 14.8708C19.3082 14.2961 19.6665 13.6051 19.6665 12.7976C19.6665 11.9904 19.3072 11.3001 18.5885 10.7268C17.8702 10.1535 17.0063 9.8668 15.997 9.8668C14.988 9.8668 14.1252 10.1543 13.4085 10.7292C12.6918 11.3039 12.3335 11.9949 12.3335 12.8024C12.3335 13.6096 12.6928 14.2999 13.4115 14.8732C14.1298 15.4465 14.9937 15.7332 16.003 15.7332ZM16 28.48C20.311 25.3333 23.4998 22.4777 25.5665 19.9132C27.6332 17.3489 28.6665 15.0845 28.6665 13.12C28.6665 10.0571 27.4438 7.54907 24.9985 5.596C22.5532 3.6432 19.5537 2.6668 16 2.6668C12.4463 2.6668 9.44683 3.6432 7.0015 5.596C4.55617 7.54907 3.3335 10.0571 3.3335 13.12C3.3335 15.0845 4.3835 17.3489 6.4835 19.9132C8.5835 22.4777 11.7557 25.3333 16 28.48ZM16 32C10.6333 28.3467 6.625 24.9533 3.975 21.82C1.325 18.6867 0 15.7867 0 13.12C0 9.12 1.60833 5.93333 4.825 3.56C8.04167 1.18667 11.7667 0 16 0C20.2333 0 23.9583 1.18667 27.175 3.56C30.3917 5.93333 32 9.12 32 13.12C32 15.7867 30.675 18.6867 28.025 21.82C25.375 24.9533 21.3667 28.3467 16 32Z" fill="white"/>
</svg>
