<svg width="33" height="32" viewBox="0 0 33 32" fill="none" xmlns="http://www.w3.org/2000/svg">
<path d="M3.47678 27.2591C5.1953 25.6295 7.15723 24.3234 9.36256 23.3409C11.5679 22.3581 13.9506 21.8667 16.5106 21.8667C19.0706 21.8667 21.4543 22.3581 23.6617 23.3409C25.8691 24.3234 27.832 25.6295 29.5506 27.2591V2.96311H3.47678V27.2591ZM16.5728 18.3409C18.2913 18.3409 19.7482 17.7433 20.9434 16.548C22.1384 15.353 22.7359 13.8963 22.7359 12.1778C22.7359 10.4593 22.1384 9.00252 20.9434 7.80756C19.7482 6.6123 18.2913 6.01467 16.5728 6.01467C14.8543 6.01467 13.3975 6.6123 12.2026 7.80756C11.0076 9.00252 10.4101 10.4593 10.4101 12.1778C10.4101 13.8963 11.0076 15.353 12.2026 16.548C13.3975 17.7433 14.8543 18.3409 16.5728 18.3409ZM3.47678 32C2.67678 32 1.98286 31.7062 1.39501 31.1187C0.80745 30.5308 0.513672 29.8369 0.513672 29.0369V2.96311C0.513672 2.16311 0.80745 1.46919 1.39501 0.881334C1.98286 0.293779 2.67678 0 3.47678 0H29.5506C30.3506 0 31.0445 0.293779 31.6323 0.881334C32.2199 1.46919 32.5137 2.16311 32.5137 2.96311V29.0369C32.5137 29.8369 32.2199 30.5308 31.6323 31.1187C31.0445 31.7062 30.3506 32 29.5506 32H3.47678ZM5.77278 29.0369H27.2248C25.5655 27.6049 23.8347 26.5456 22.0323 25.8591C20.2297 25.1729 18.3901 24.8298 16.5137 24.8298C14.6372 24.8298 12.7928 25.1729 10.9803 25.8591C9.16789 26.5456 7.43204 27.6049 5.77278 29.0369ZM16.5728 15.3778C15.6839 15.3778 14.9283 15.0667 14.3061 14.4444C13.6839 13.8222 13.3728 13.0667 13.3728 12.1778C13.3728 11.2889 13.6839 10.5333 14.3061 9.91111C14.9283 9.28889 15.6839 8.97778 16.5728 8.97778C17.4617 8.97778 18.2172 9.28889 18.8395 9.91111C19.4617 10.5333 19.7728 11.2889 19.7728 12.1778C19.7728 13.0667 19.4617 13.8222 18.8395 14.4444C18.2172 15.0667 17.4617 15.3778 16.5728 15.3778Z" fill="black"/>
</svg>
