<svg width="135" height="28" viewBox="0 0 135 28" fill="none" xmlns="http://www.w3.org/2000/svg">
<path d="M117.133 21.095L121.333 18.3914L125.533 21.1306L124.433 16.008L128.133 12.593L123.267 12.1305L121.333 7.29254L119.4 12.0949L114.533 12.5574L118.233 16.008L117.133 21.095ZM113.1 27.0358L115.267 17.0396L108 10.3163L117.6 9.42694L121.333 0L125.067 9.42694L134.667 10.3163L127.4 17.0396L129.567 27.0358L121.333 21.7353L113.1 27.0358Z" fill="#5F6368"/>
<path d="M90.1333 21.095L94.3333 18.3914L98.5333 21.1306L97.4333 16.008L101.133 12.593L96.2667 12.1305L94.3333 7.29254L92.4 12.0949L87.5333 12.5574L91.2333 16.008L90.1333 21.095ZM86.1 27.0358L88.2667 17.0396L81 10.3163L90.6 9.42694L94.3333 0L98.0667 9.42694L107.667 10.3163L100.4 17.0396L102.567 27.0358L94.3333 21.7353L86.1 27.0358Z" fill="#5F6368"/>
<path d="M36.1333 21.095L40.3333 18.3914L44.5333 21.1306L43.4333 16.008L47.1333 12.593L42.2667 12.1305L40.3333 7.29254L38.4 12.0949L33.5333 12.5574L37.2333 16.008L36.1333 21.095ZM32.1 27.0358L34.2667 17.0396L27 10.3163L36.6 9.42694L40.3333 0L44.0667 9.42694L53.6667 10.3163L46.4 17.0396L48.5667 27.0358L40.3333 21.7353L32.1 27.0358Z" fill="#5F6368"/>
<path d="M63.1333 21.095L67.3333 18.3914L71.5333 21.1306L70.4333 16.008L74.1333 12.593L69.2667 12.1305L67.3333 7.29254L65.4 12.0949L60.5333 12.5574L64.2333 16.008L63.1333 21.095ZM59.1 27.0358L61.2667 17.0396L54 10.3163L63.6 9.42694L67.3333 0L71.0667 9.42694L80.6667 10.3163L73.4 17.0396L75.5667 27.0358L67.3333 21.7353L59.1 27.0358Z" fill="#5F6368"/>
<path d="M9.13333 21.095L13.3333 18.3914L17.5333 21.1306L16.4333 16.008L20.1333 12.593L15.2667 12.1305L13.3333 7.29254L11.4 12.0949L6.53333 12.5574L10.2333 16.008L9.13333 21.095ZM5.1 27.0358L7.26667 17.0396L0 10.3163L9.6 9.42694L13.3333 0L17.0667 9.42694L26.6667 10.3163L19.4 17.0396L21.5667 27.0358L13.3333 21.7353L5.1 27.0358Z" fill="#5F6368"/>
</svg>
