<svg width="32" height="32" viewBox="0 0 32 32" fill="none" xmlns="http://www.w3.org/2000/svg">
<path d="M11.8437 14.7993L14.7993 11.8327L12.5103 9.53268L10.955 11.0883L9.39935 9.53268L10.9437 7.97702L8.77702 5.83268L5.81035 8.79935L11.8437 14.7993ZM23.177 26.1883L26.1437 23.1994L23.977 21.0327L22.4217 22.577L20.866 21.0217L22.4104 19.466L20.1327 17.1993L17.177 20.155L23.177 26.1883ZM9.35502 27.9993H3.99935V22.6437L10.255 16.3884L2.66602 8.79935L8.75502 2.66602L16.3993 10.2883L22.0327 4.64368C22.2549 4.42146 22.503 4.25857 22.777 4.15502C23.0512 4.05124 23.329 3.99935 23.6104 3.99935C23.8919 3.99935 24.1697 4.05124 24.4437 4.15502C24.7179 4.25857 24.9661 4.42146 25.1883 4.64368L27.355 6.82168C27.5772 7.0439 27.7401 7.29202 27.8437 7.56602C27.9475 7.84002 27.9993 8.11779 27.9993 8.39935C27.9993 8.6809 27.9475 8.95679 27.8437 9.22702C27.7401 9.49746 27.5772 9.74379 27.355 9.96602L21.7217 15.6103L29.3327 23.2217L23.2217 29.3104L15.6327 21.7217L9.35502 27.9993ZM6.22168 25.777H8.39935L21.4883 12.677L19.2994 10.4883L6.22168 23.5993V25.777ZM20.3993 11.5883L19.2994 10.4883L21.4883 12.677L20.3993 11.5883Z" fill="black"/>
</svg>
