<svg width="32" height="32" viewBox="0 0 32 32" fill="none" xmlns="http://www.w3.org/2000/svg">
<path d="M22.7994 29.3327C21.7253 29.3327 20.8124 28.9568 20.0604 28.205C19.3086 27.453 18.9327 26.54 18.9327 25.466C18.9327 25.3031 18.9808 24.9476 19.077 24.3993L9.31035 18.6884C8.95079 19.0564 8.53502 19.3446 8.06302 19.553C7.59102 19.7617 7.0809 19.866 6.53268 19.866C5.45868 19.866 4.54568 19.4901 3.79368 18.7383C3.0419 17.9864 2.66602 17.0733 2.66602 15.9993C2.66602 14.9253 3.0419 14.0124 3.79368 13.2604C4.54568 12.5086 5.45868 12.1327 6.53268 12.1327C7.06602 12.1327 7.56602 12.233 8.03268 12.4337C8.49935 12.6344 8.91046 12.9118 9.26602 13.266L19.077 7.59935C19.0326 7.4289 18.9975 7.25668 18.9717 7.08268C18.9457 6.90868 18.9327 6.72535 18.9327 6.53268C18.9327 5.45868 19.3086 4.54568 20.0604 3.79368C20.8124 3.04191 21.7253 2.66602 22.7994 2.66602C23.8734 2.66602 24.7864 3.04191 25.5383 3.79368C26.2901 4.54568 26.666 5.45868 26.666 6.53268C26.666 7.60668 26.2901 8.51968 25.5383 9.27168C24.7864 10.0235 23.8734 10.3993 22.7994 10.3993C22.2767 10.3993 21.7868 10.3012 21.3297 10.105C20.8723 9.90857 20.4659 9.64368 20.1103 9.31035L10.2327 14.8883C10.292 15.0586 10.3346 15.2381 10.3603 15.427C10.3863 15.6159 10.3993 15.803 10.3993 15.9883C10.3993 16.1735 10.3901 16.3457 10.3717 16.505C10.353 16.6641 10.3215 16.8289 10.277 16.9993L20.1327 22.666C20.4882 22.3327 20.8927 22.0716 21.346 21.8827C21.7991 21.6938 22.2847 21.5993 22.8027 21.5993C23.882 21.5993 24.7957 21.9752 25.5437 22.727C26.2919 23.479 26.666 24.392 26.666 25.466C26.666 26.54 26.2901 27.453 25.5383 28.205C24.7864 28.9568 23.8734 29.3327 22.7994 29.3327ZM22.8 27.1104C23.2662 27.1104 23.6568 26.9527 23.9717 26.6374C24.2864 26.322 24.4437 25.9313 24.4437 25.4653C24.4437 24.9991 24.286 24.6086 23.9707 24.2937C23.6553 23.979 23.2647 23.8217 22.7987 23.8217C22.3325 23.8217 21.9419 23.9793 21.627 24.2947C21.3124 24.61 21.155 25.0007 21.155 25.4667C21.155 25.9329 21.3127 26.3235 21.628 26.6383C21.9433 26.953 22.334 27.1104 22.8 27.1104ZM6.53335 17.6437C6.99957 17.6437 7.39013 17.486 7.70502 17.1707C8.01968 16.8554 8.17702 16.4647 8.17702 15.9987C8.17702 15.5325 8.01935 15.1419 7.70402 14.827C7.38868 14.5124 6.99802 14.355 6.53202 14.355C6.06579 14.355 5.67524 14.5127 5.36035 14.828C5.04568 15.1433 4.88835 15.534 4.88835 16C4.88835 16.4662 5.04602 16.8568 5.36135 17.1717C5.67668 17.4864 6.06735 17.6437 6.53335 17.6437ZM22.8 8.17702C23.2662 8.17702 23.6568 8.01935 23.9717 7.70402C24.2864 7.38868 24.4437 6.99802 24.4437 6.53202C24.4437 6.06579 24.286 5.67524 23.9707 5.36035C23.6553 5.04568 23.2647 4.88835 22.7987 4.88835C22.3325 4.88835 21.9419 5.04602 21.627 5.36135C21.3124 5.67668 21.155 6.06735 21.155 6.53335C21.155 6.99957 21.3127 7.39013 21.628 7.70502C21.9433 8.01968 22.334 8.17702 22.8 8.17702Z" fill="black"/>
</svg>
