<svg width="200" height="50" viewBox="0 0 200 50" fill="none" xmlns="http://www.w3.org/2000/svg">
<rect x="1" y="1" width="198" height="48" rx="7" stroke="black" stroke-width="2"/>
<path d="M9.9155 22.84H15.2915V24.92H9.9155V22.84ZM10.1075 29H7.5155V17.8H15.9795V19.88H10.1075V29ZM21.6271 29.128C20.6458 29.128 19.7818 28.936 19.0351 28.552C18.2991 28.168 17.7285 27.6453 17.3231 26.984C16.9178 26.312 16.7151 25.5493 16.7151 24.696C16.7151 23.832 16.9125 23.0693 17.3071 22.408C17.7125 21.736 18.2618 21.2133 18.9551 20.84C19.6485 20.456 20.4325 20.264 21.3071 20.264C22.1498 20.264 22.9071 20.4453 23.5791 20.808C24.2618 21.16 24.8005 21.672 25.1951 22.344C25.5898 23.0053 25.7871 23.8 25.7871 24.728C25.7871 24.824 25.7818 24.936 25.7711 25.064C25.7605 25.1813 25.7498 25.2933 25.7391 25.4H18.7471V23.944H24.4271L23.4671 24.376C23.4671 23.928 23.3765 23.5387 23.1951 23.208C23.0138 22.8773 22.7631 22.6213 22.4431 22.44C22.1231 22.248 21.7498 22.152 21.3231 22.152C20.8965 22.152 20.5178 22.248 20.1871 22.44C19.8671 22.6213 19.6165 22.8827 19.4351 23.224C19.2538 23.5547 19.1631 23.9493 19.1631 24.408V24.792C19.1631 25.2613 19.2645 25.6773 19.4671 26.04C19.6805 26.392 19.9738 26.664 20.3471 26.856C20.7311 27.0373 21.1791 27.128 21.6911 27.128C22.1498 27.128 22.5498 27.0587 22.8911 26.92C23.2431 26.7813 23.5631 26.5733 23.8511 26.296L25.1791 27.736C24.7845 28.184 24.2885 28.5307 23.6911 28.776C23.0938 29.0107 22.4058 29.128 21.6271 29.128ZM32.4945 29V27.32L32.3345 26.952V23.944C32.3345 23.4107 32.1692 22.9947 31.8385 22.696C31.5185 22.3973 31.0225 22.248 30.3505 22.248C29.8918 22.248 29.4385 22.3227 28.9905 22.472C28.5532 22.6107 28.1798 22.8027 27.8705 23.048L26.9745 21.304C27.4438 20.9733 28.0092 20.7173 28.6705 20.536C29.3318 20.3547 30.0038 20.264 30.6865 20.264C31.9985 20.264 33.0172 20.5733 33.7425 21.192C34.4678 21.8107 34.8305 22.776 34.8305 24.088V29H32.4945ZM29.8705 29.128C29.1985 29.128 28.6225 29.016 28.1425 28.792C27.6625 28.5573 27.2945 28.2427 27.0385 27.848C26.7825 27.4533 26.6545 27.0107 26.6545 26.52C26.6545 26.008 26.7772 25.56 27.0225 25.176C27.2785 24.792 27.6785 24.4933 28.2225 24.28C28.7665 24.056 29.4758 23.944 30.3505 23.944H32.6385V25.4H30.6225C30.0358 25.4 29.6305 25.496 29.4065 25.688C29.1932 25.88 29.0865 26.12 29.0865 26.408C29.0865 26.728 29.2092 26.984 29.4545 27.176C29.7105 27.3573 30.0572 27.448 30.4945 27.448C30.9105 27.448 31.2838 27.352 31.6145 27.16C31.9452 26.9573 32.1852 26.664 32.3345 26.28L32.7185 27.432C32.5372 27.9867 32.2065 28.408 31.7265 28.696C31.2465 28.984 30.6278 29.128 29.8705 29.128ZM40.6095 29.128C39.5962 29.128 38.8068 28.872 38.2415 28.36C37.6762 27.8373 37.3935 27.064 37.3935 26.04V18.488H39.8895V26.008C39.8895 26.3707 39.9855 26.6533 40.1775 26.856C40.3695 27.048 40.6308 27.144 40.9615 27.144C41.3562 27.144 41.6922 27.0373 41.9695 26.824L42.6415 28.584C42.3855 28.7653 42.0762 28.904 41.7135 29C41.3615 29.0853 40.9935 29.128 40.6095 29.128ZM36.0655 22.504V20.584H42.0335V22.504H36.0655ZM47.6746 29.128C46.96 29.128 46.32 28.9893 45.7546 28.712C45.2 28.4347 44.768 28.0133 44.4586 27.448C44.1493 26.872 43.9946 26.1413 43.9946 25.256V20.392H46.4906V24.888C46.4906 25.6027 46.64 26.1307 46.9386 26.472C47.248 26.8027 47.68 26.968 48.2346 26.968C48.6186 26.968 48.96 26.888 49.2586 26.728C49.5573 26.5573 49.792 26.3013 49.9626 25.96C50.1333 25.608 50.2186 25.1707 50.2186 24.648V20.392H52.7146V29H50.3466V26.632L50.7786 27.32C50.4906 27.9173 50.064 28.3707 49.4986 28.68C48.944 28.9787 48.336 29.128 47.6746 29.128ZM55.027 29V20.392H57.411V22.824L57.075 22.12C57.331 21.512 57.7417 21.0533 58.307 20.744C58.8723 20.424 59.5603 20.264 60.371 20.264V22.568C60.2643 22.5573 60.1683 22.552 60.083 22.552C59.9977 22.5413 59.907 22.536 59.811 22.536C59.1283 22.536 58.5737 22.7333 58.147 23.128C57.731 23.512 57.523 24.1147 57.523 24.936V29H55.027ZM66.0646 29.128C65.0833 29.128 64.2193 28.936 63.4726 28.552C62.7366 28.168 62.166 27.6453 61.7606 26.984C61.3553 26.312 61.1526 25.5493 61.1526 24.696C61.1526 23.832 61.35 23.0693 61.7446 22.408C62.15 21.736 62.6993 21.2133 63.3926 20.84C64.086 20.456 64.87 20.264 65.7446 20.264C66.5873 20.264 67.3446 20.4453 68.0166 20.808C68.6993 21.16 69.238 21.672 69.6326 22.344C70.0273 23.0053 70.2246 23.8 70.2246 24.728C70.2246 24.824 70.2193 24.936 70.2086 25.064C70.198 25.1813 70.1873 25.2933 70.1766 25.4H63.1846V23.944H68.8646L67.9046 24.376C67.9046 23.928 67.814 23.5387 67.6326 23.208C67.4513 22.8773 67.2006 22.6213 66.8806 22.44C66.5606 22.248 66.1873 22.152 65.7606 22.152C65.334 22.152 64.9553 22.248 64.6246 22.44C64.3046 22.6213 64.054 22.8827 63.8726 23.224C63.6913 23.5547 63.6006 23.9493 63.6006 24.408V24.792C63.6006 25.2613 63.702 25.6773 63.9046 26.04C64.118 26.392 64.4113 26.664 64.7846 26.856C65.1686 27.0373 65.6166 27.128 66.1286 27.128C66.5873 27.128 66.9873 27.0587 67.3286 26.92C67.6806 26.7813 68.0006 26.5733 68.2886 26.296L69.6166 27.736C69.222 28.184 68.726 28.5307 68.1286 28.776C67.5313 29.0107 66.8433 29.128 66.0646 29.128ZM75.5824 29.128C74.7717 29.128 74.041 28.9467 73.3904 28.584C72.7397 28.2107 72.2224 27.6933 71.8384 27.032C71.465 26.3707 71.2784 25.592 71.2784 24.696C71.2784 23.7893 71.465 23.0053 71.8384 22.344C72.2224 21.6827 72.7397 21.1707 73.3904 20.808C74.041 20.4453 74.7717 20.264 75.5824 20.264C76.3077 20.264 76.9424 20.424 77.4864 20.744C78.0304 21.064 78.4517 21.5493 78.7504 22.2C79.049 22.8507 79.1984 23.6827 79.1984 24.696C79.1984 25.6987 79.0544 26.5307 78.7664 27.192C78.4784 27.8427 78.0624 28.328 77.5184 28.648C76.985 28.968 76.3397 29.128 75.5824 29.128ZM76.0144 27.08C76.4197 27.08 76.7877 26.984 77.1184 26.792C77.449 26.6 77.7104 26.328 77.9024 25.976C78.105 25.6133 78.2064 25.1867 78.2064 24.696C78.2064 24.1947 78.105 23.768 77.9024 23.416C77.7104 23.064 77.449 22.792 77.1184 22.6C76.7877 22.408 76.4197 22.312 76.0144 22.312C75.5984 22.312 75.225 22.408 74.8944 22.6C74.5637 22.792 74.297 23.064 74.0944 23.416C73.9024 23.768 73.8064 24.1947 73.8064 24.696C73.8064 25.1867 73.9024 25.6133 74.0944 25.976C74.297 26.328 74.5637 26.6 74.8944 26.792C75.225 26.984 75.5984 27.08 76.0144 27.08ZM78.2704 29V27.24L78.3184 24.68L78.1584 22.136V17.128H80.6544V29H78.2704Z" fill="black"/>
<path d="M192.667 19.0333L190.611 17L179.333 28.2777L168.055 17L166 19.0333L179.333 32.3667L192.667 19.0333Z" fill="black"/>
<line x1="155.5" y1="1" x2="155.5" y2="50" stroke="black"/>
</svg>
