<svg width="160" height="32" viewBox="0 0 160 32" fill="none" xmlns="http://www.w3.org/2000/svg">
<path d="M138.133 26.1474L144 22.4421L149.867 26.1895L148.307 19.1718L153.467 14.456L146.667 13.8244L144 7.2L141.333 13.7823L134.533 14.4139L139.693 19.144L138.133 26.1474ZM134.12 32L136.72 20.1684L128 12.2105L139.52 11.1579L144 0L148.48 11.1579L160 12.2105L151.28 20.1684L153.88 32L144 25.7263L134.12 32Z" fill="black"/>
<path d="M117.867 26.1895L116.307 19.1718L121.467 14.456L114.667 13.8244L112 7.2V22.4421L117.867 26.1895ZM102.12 32L104.72 20.1684L96 12.2105L107.52 11.1579L112 0L116.48 11.1579L128 12.2105L119.28 20.1684L121.88 32L112 25.7263L102.12 32Z" fill="black"/>
<path d="M16.7741 1.60169L20.8222 9.80443C20.9796 10.123 21.2834 10.3436 21.635 10.3949L30.6874 11.7103C31.5726 11.8389 31.9263 12.9267 31.2856 13.5512L24.7351 19.9359C24.4808 20.1839 24.3646 20.5411 24.4246 20.8913L25.9708 29.9068C26.1222 30.7885 25.1967 31.4607 24.405 31.0445L16.3086 26.7881C15.9943 26.6226 15.6184 26.6226 15.3041 26.7881L7.20741 31.0445C6.41569 31.4607 5.49015 30.7885 5.64154 29.9068L7.18774 20.8913C7.2478 20.5411 7.13154 20.1839 6.87724 19.9359L0.327127 13.5509C-0.313553 12.9263 0.0401553 11.8385 0.925305 11.71L9.97772 10.3945C10.3293 10.3436 10.6332 10.1227 10.7905 9.80408L14.8387 1.60169C15.2345 0.799436 16.3782 0.799436 16.7741 1.60169Z" fill="black"/>
<path d="M48.7741 1.60169L52.8222 9.80443C52.9796 10.123 53.2834 10.3436 53.635 10.3949L62.6874 11.7103C63.5726 11.8389 63.9263 12.9267 63.2856 13.5512L56.7351 19.9359C56.4808 20.1839 56.3646 20.5411 56.4246 20.8913L57.9708 29.9068C58.1222 30.7885 57.1967 31.4608 56.405 31.0445L48.3086 26.7881C47.9943 26.6226 47.6184 26.6226 47.3041 26.7881L39.2074 31.0445C38.4157 31.4608 37.4902 30.7885 37.6415 29.9068L39.1877 20.8913C39.2478 20.5411 39.1315 20.1839 38.8772 19.9359L32.3271 13.5509C31.6864 12.9263 32.0402 11.8385 32.9253 11.71L41.9777 10.3945C42.3293 10.3436 42.6332 10.1227 42.7905 9.80408L46.8387 1.60169C47.2345 0.799436 48.3782 0.799436 48.7741 1.60169Z" fill="black"/>
<path d="M80.7741 1.60169L84.8222 9.80443C84.9796 10.123 85.2834 10.3436 85.635 10.3949L94.6874 11.7103C95.5726 11.8389 95.9263 12.9267 95.2856 13.5512L88.7351 19.9359C88.4808 20.1839 88.3646 20.5411 88.4246 20.8913L89.9708 29.9068C90.1222 30.7885 89.1967 31.4608 88.405 31.0445L80.3086 26.7881C79.9943 26.6226 79.6184 26.6226 79.3041 26.7881L71.2074 31.0445C70.4157 31.4608 69.4902 30.7885 69.6415 29.9068L71.1877 20.8913C71.2478 20.5411 71.1315 20.1839 70.8772 19.9359L64.3271 13.5509C63.6864 12.9263 64.0402 11.8385 64.9253 11.71L73.9777 10.3945C74.3293 10.3436 74.6332 10.1227 74.7905 9.80408L78.8387 1.60169C79.2345 0.799436 80.3782 0.799436 80.7741 1.60169Z" fill="black"/>
</svg>
