<svg width="32" height="32" viewBox="0 0 32 32" fill="none" xmlns="http://www.w3.org/2000/svg">
<path d="M5.33333 0C2.40894 0 0 2.40894 0 5.33333V26.6667C0 29.5911 2.40894 32 5.33333 32H26.6667C29.5911 32 32 29.5911 32 26.6667V5.33333C32 2.40894 29.5911 0 26.6667 0H5.33333ZM5.33333 3.55556H26.6667C27.6712 3.55556 28.4444 4.32884 28.4444 5.33333V26.6667C28.4444 27.6712 27.6712 28.4444 26.6667 28.4444H5.33333C4.32884 28.4444 3.55556 27.6712 3.55556 26.6667V5.33333C3.55556 4.32884 4.32884 3.55556 5.33333 3.55556ZM16 7.11111V19.5556C16 20.5601 15.2267 21.3333 14.2222 21.3333C13.2177 21.3333 12.4444 20.5601 12.4444 19.5556C12.4444 18.5511 13.2177 17.7778 14.2222 17.7778V14.2222C11.2978 14.2222 8.88889 16.6312 8.88889 19.5556C8.88889 22.4799 11.2978 24.8889 14.2222 24.8889C17.1466 24.8889 19.5556 22.4799 19.5556 19.5556V12.8576C20.6509 13.6379 21.794 14.2222 23.1111 14.2222V10.6667C23.027 10.6667 21.8003 10.2772 20.9444 9.53125C20.0886 8.78528 19.5556 7.84887 19.5556 7.11111H16Z" fill="white"/>
</svg>
