<svg width="52" height="52" viewBox="0 0 52 52" fill="none" xmlns="http://www.w3.org/2000/svg">
<path d="M46.584 33.584C47.1906 33.584 47.6673 34.0607 47.6673 34.6673V36.834C47.6673 40.4307 44.764 43.334 41.1673 43.334C41.1673 39.759 38.2423 36.834 34.6673 36.834C31.0923 36.834 28.1673 39.759 28.1673 43.334H23.834C23.834 39.759 20.909 36.834 17.334 36.834C13.759 36.834 10.834 39.759 10.834 43.334C7.23732 43.334 4.33398 40.4307 4.33398 36.834V32.5007C4.33398 31.309 5.30898 30.334 6.50065 30.334H27.084C30.074 30.334 32.5006 27.9073 32.5006 24.9173V13.0007C32.5006 11.809 33.4756 10.834 34.6673 10.834H36.4873C38.0473 10.834 39.4773 11.679 40.2573 13.0223L41.644 15.449C41.839 15.7957 41.579 16.2507 41.1673 16.2507C38.1773 16.2507 35.7506 18.6773 35.7506 21.6673V28.1673C35.7506 31.1573 38.1773 33.584 41.1673 33.584H46.584Z" fill="white"/>
<path d="M17.3333 47.6667C19.7266 47.6667 21.6667 45.7266 21.6667 43.3333C21.6667 40.9401 19.7266 39 17.3333 39C14.9401 39 13 40.9401 13 43.3333C13 45.7266 14.9401 47.6667 17.3333 47.6667Z" fill="white"/>
<path d="M34.6673 47.6667C37.0606 47.6667 39.0007 45.7266 39.0007 43.3333C39.0007 40.9401 37.0606 39 34.6673 39C32.2741 39 30.334 40.9401 30.334 43.3333C30.334 45.7266 32.2741 47.6667 34.6673 47.6667Z" fill="white"/>
<path d="M47.6667 27.1483V30.3333H41.1667C39.975 30.3333 39 29.3583 39 28.1667V21.6667C39 20.475 39.975 19.5 41.1667 19.5H43.9617L47.1033 25.0033C47.4717 25.6533 47.6667 26.39 47.6667 27.1483Z" fill="white"/>
<path d="M28.3387 4.33398H12.327C8.4487 4.33398 5.1987 7.10732 4.4837 10.7907H13.952C14.7754 10.7907 15.4254 11.4623 15.4254 12.2857C15.4254 13.109 14.7754 13.759 13.952 13.759H4.33203V16.749H9.96536C10.7887 16.749 11.4604 17.4207 11.4604 18.244C11.4604 19.0673 10.7887 19.7173 9.96536 19.7173H4.33203V22.7073H6.00036C6.8237 22.7073 7.49536 23.379 7.49536 24.2023C7.49536 25.0256 6.8237 25.6757 6.00036 25.6757H4.33203V26.174C4.33203 27.3656 5.30703 28.3406 6.4987 28.3406H26.3237C28.5337 28.3406 30.332 26.5423 30.332 24.3323V6.32732C30.332 5.22232 29.4437 4.33398 28.3387 4.33398Z" fill="white"/>
<path d="M4.48435 10.791H4.15935H2.03602C1.21268 10.791 0.541016 11.4627 0.541016 12.286C0.541016 13.1093 1.21268 13.7593 2.03602 13.7593H4.00768H4.33268V12.3293C4.33268 11.8093 4.39768 11.2893 4.48435 10.791Z" fill="white"/>
<path d="M4.00768 16.748H2.03602C1.21268 16.748 0.541016 17.4197 0.541016 18.243C0.541016 19.0664 1.21268 19.7164 2.03602 19.7164H4.00768H4.33268V16.748H4.00768Z" fill="white"/>
<path d="M4.00768 22.707H2.03602C1.21268 22.707 0.541016 23.3787 0.541016 24.202C0.541016 25.0254 1.21268 25.6754 2.03602 25.6754H4.00768H4.33268V22.707H4.00768Z" fill="white"/>
</svg>
