<svg width="32" height="32" viewBox="0 0 32 32" fill="none" xmlns="http://www.w3.org/2000/svg">
<path d="M7.64765 26.645C6.54965 26.645 5.61543 26.2604 4.84498 25.4913C4.07476 24.7222 3.68965 23.7883 3.68965 22.6897H1.33398V7.55632C1.33398 6.95632 1.55432 6.43587 1.99498 5.99498C2.43587 5.55432 2.95632 5.33398 3.55632 5.33398H22.645V10.823H26.3117L30.6673 16.623V22.6897H28.2007C28.2007 23.7883 27.8163 24.7222 27.0477 25.4913C26.279 26.2604 25.3457 26.645 24.2477 26.645C23.1497 26.645 22.2154 26.2604 21.445 25.4913C20.6748 24.7222 20.2897 23.7883 20.2897 22.6897H11.6007C11.6007 23.7859 11.2163 24.7192 10.4477 25.4897C9.67898 26.2599 8.74565 26.645 7.64765 26.645ZM7.64498 24.423C8.12654 24.423 8.53587 24.2544 8.87299 23.9173C9.20987 23.5802 9.37832 23.171 9.37832 22.6897C9.37832 22.2081 9.20987 21.7988 8.87299 21.4617C8.53587 21.1248 8.12654 20.9563 7.64498 20.9563C7.16365 20.9563 6.75443 21.1248 6.41732 21.4617C6.08021 21.7988 5.91165 22.2081 5.91165 22.6897C5.91165 23.171 6.08021 23.5802 6.41732 23.9173C6.75443 24.2544 7.16365 24.423 7.64498 24.423ZM3.55632 20.4673H4.40065C4.77843 19.934 5.24165 19.5081 5.79032 19.1897C6.33921 18.871 6.95032 18.7117 7.62365 18.7117C8.29721 18.7117 8.91176 18.8747 9.46732 19.2007C10.0229 19.5267 10.4895 19.9489 10.8673 20.4673H20.423V7.55632H3.55632V20.4673ZM24.245 24.423C24.7265 24.423 25.1359 24.2544 25.473 23.9173C25.8099 23.5802 25.9783 23.171 25.9783 22.6897C25.9783 22.2081 25.8099 21.7988 25.473 21.4617C25.1359 21.1248 24.7265 20.9563 24.245 20.9563C23.7637 20.9563 23.3544 21.1248 23.0173 21.4617C22.6802 21.7988 22.5117 22.2081 22.5117 22.6897C22.5117 23.171 22.6802 23.5802 23.0173 23.9173C23.3544 24.2544 23.7637 24.423 24.245 24.423ZM22.645 17.6673H28.6673L25.2007 13.045H22.645V17.6673Z" fill="black"/>
</svg>
